<svg width="20" height="20" viewBox="0 0 20 20" fill="none" xmlns="http://www.w3.org/2000/svg">
<path fill-rule="evenodd" clip-rule="evenodd" d="M18.387 17.4237C18.206 17.4237 12 17.4237 12 17.4237V18.4237H14V19.4237H6V18.4237H8V17.4237C8 17.4237 1.856 17.4237 1.634 17.4237C0.739 17.4237 0 16.6267 0 15.6877C0 15.0437 0 6.78469 0 6.14069C0 5.16869 0.656 4.42369 1.638 4.42369C2.28 4.42369 8.421 4.42369 8.421 4.42369L6.75 1.73869C6.75 1.73869 5.773 0.695692 6.611 0.128692C7.429 -0.425308 7.974 0.988692 7.974 0.988692L10 4.42369L11.961 1.07069C11.961 1.07069 12.582 -0.256308 13.359 0.176692C14.235 0.665692 13.066 1.92269 13.066 1.92269L11.595 4.42369C11.595 4.42369 17.755 4.42369 18.396 4.42369C19.307 4.42369 20 5.22069 20 6.13169C20 6.77569 20 15.1107 20 15.7547C20 16.6787 19.301 17.4237 18.387 17.4237ZM19 6.04769L18.305 5.42369H1.596L1 6.12069V15.8047L1.69 16.4247H18.275L19 15.7487V6.04769ZM8.927 15.2167L10.889 8.32769L5.806 10.1077L6.109 8.76869L14.168 6.03969L11.786 14.4317L8.927 15.2167ZM9.826 9.35469L7.908 15.3037L6.86 15.6757L8.628 9.71869L9.826 9.35469Z" fill="#0757A8"/>
</svg>
