<svg width="22" height="22" viewBox="0 0 22 22" fill="none" xmlns="http://www.w3.org/2000/svg">
<path fill-rule="evenodd" clip-rule="evenodd" d="M11 0C4.9 0 0 4.9 0 11C0 17.1 4.9 22 11 22C17.1 22 22 17.1 22 11C22 4.9 17.1 0 11 0ZM2 11.5C3 12 4.1 12.4 5.1 12.9C5 13.1 4.9 13.3 4.8 13.5C5 15.2 5.7 16.9 6.1 18.6C3.8 17.1 2.2 14.5 2 11.5ZM18.7 15.6C17.9 15.4 17.1 15.2 16.3 15C15.6 15.8 15 16.5 14.3 17.3C15.2 17.5 16 17.6 16.9 17.8C15.3 19.2 13.3 20 11 20C9.9 20 8.9 19.8 7.9 19.4C8.5 17.6 9 15.8 9.6 14C8.3 13.6 6.7 11.7 5.4 11.4C5.4 11.4 5.3 11.5 5.2 11.7C5.1 11.5 5 11.4 4.9 11.2C5.3 9.9 5.7 8.6 6.1 7.3C5.6 6.8 5 6.3 4.4 5.9C4.4 5.7 4.4 5.6 4.4 5.4C4.3 5.4 4.2 5.3 4.1 5.3C5.7 3.3 8.2 2 11 2C13 2 14.9 2.7 16.4 3.8C16.1 4.3 15.5 5 14.3 4.8C13.1 4.6 12.1 3.7 11.1 3.9C9 4.4 8.2 6.8 8.2 7.3C9.3 8.8 10.4 10.2 11.5 11.7C11.1 11.9 10.7 12 10.4 12.2C10.3 12.4 10.2 12.7 10.2 12.9C10.6 13.5 11.6 14 12 14.8C12.5 15.7 11.4 17.2 12.9 17.7C14.4 16.7 15.6 13.2 16.2 11.8C15.8 11.4 14 11.8 13.6 11.4C15.2 10.5 16.4 10.8 17.9 9.9C18.1 10 18.8 8.9 19 9C18.9 9.3 18.7 10.4 18.6 10.8C18.7 10.8 19.4 10.9 19.6 10.9C19.7 10.8 19.8 10.7 20 10.5C20 10.7 20 11 20 11.2C20 12.7 19.5 14.3 18.7 15.6Z" fill="white"/>
</svg>
