<svg width="18" height="18" viewBox="0 0 18 18" fill="none" xmlns="http://www.w3.org/2000/svg">
<path d="M9 1.6C11.4 1.6 11.7 1.6 12.6 1.7C13.5 1.7 14 1.9 14.3 2C14.7 2.2 15 2.4 15.3 2.7C15.6 3 15.8 3.3 16 3.7C16.1 4 16.3 4.5 16.3 5.4C16.3 6.3 16.4 6.6 16.4 9C16.4 11.4 16.4 11.7 16.3 12.6C16.3 13.5 16.1 14 16 14.3C15.8 14.7 15.6 15 15.3 15.3C15 15.6 14.7 15.8 14.3 16C14 16.1 13.5 16.3 12.6 16.3C11.7 16.3 11.4 16.4 9 16.4C6.6 16.4 6.3 16.4 5.4 16.3C4.5 16.3 4 16.1 3.7 16C3.3 15.8 3 15.6 2.7 15.3C2.4 15 2.2 14.7 2 14.3C1.9 14 1.7 13.5 1.7 12.6C1.7 11.7 1.6 11.4 1.6 9C1.6 6.6 1.6 6.3 1.7 5.4C1.7 4.5 1.9 4 2 3.7C2.2 3.3 2.4 3 2.7 2.7C3 2.3 3.3 2.1 3.7 2C4 1.9 4.5 1.7 5.4 1.7C6.3 1.6 6.6 1.6 9 1.6ZM9 0C6.6 0 6.2 2.23517e-08 5.3 0.1C4.3 0.1 3.7 0.3 3.1 0.5C2.5 0.7 2 1 1.5 1.5C1 2 0.7 2.5 0.5 3.1C0.3 3.7 0.1 4.3 0.1 5.3C2.23517e-08 6.2 0 6.6 0 9C0 11.4 2.23517e-08 11.8 0.1 12.7C0.1 13.7 0.3 14.3 0.5 14.9C0.7 15.5 1 16 1.5 16.5C2 17 2.5 17.3 3.1 17.5C3.7 17.7 4.3 17.9 5.3 17.9C6.3 17.9 6.6 18 9 18C11.4 18 11.8 18 12.7 17.9C13.7 17.9 14.3 17.7 14.9 17.5C15.5 17.3 16 17 16.5 16.5C17 16 17.3 15.5 17.5 14.9C17.7 14.3 17.9 13.7 17.9 12.7C17.9 11.7 18 11.4 18 9C18 6.6 18 6.2 17.9 5.3C17.9 4.3 17.7 3.7 17.5 3.1C17.3 2.5 17 2 16.5 1.5C16 1 15.5 0.7 14.9 0.5C14.3 0.3 13.7 0.1 12.7 0.1C11.8 2.23517e-08 11.4 0 9 0Z" fill="white"/>
<path d="M8.99999 4.40002C6.39999 4.40002 4.39999 6.50002 4.39999 9.00002C4.39999 11.5 6.49999 13.6 8.99999 13.6C11.5 13.6 13.6 11.5 13.6 9.00002C13.6 6.50002 11.6 4.40002 8.99999 4.40002ZM8.99999 12C7.29999 12 5.99999 10.7 5.99999 9.00002C5.99999 7.30002 7.29999 6.00002 8.99999 6.00002C10.7 6.00002 12 7.30002 12 9.00002C12 10.7 10.7 12 8.99999 12Z" fill="white"/>
<path d="M13.8 5.29998C14.4075 5.29998 14.9 4.80749 14.9 4.19998C14.9 3.59246 14.4075 3.09998 13.8 3.09998C13.1925 3.09998 12.7 3.59246 12.7 4.19998C12.7 4.80749 13.1925 5.29998 13.8 5.29998Z" fill="white"/>
</svg>
