<svg width="24" height="24" viewBox="0 0 24 24" fill="none" xmlns="http://www.w3.org/2000/svg">
<path fill-rule="evenodd" clip-rule="evenodd" d="M12 23.999C5.37101 23.999 0.00100708 18.628 0.00100708 12C0.00100708 5.37098 5.37101 0.000976562 12 0.000976562C18.629 0.000976562 23.999 5.37098 23.999 12C23.999 18.628 18.629 23.999 12 23.999ZM12 1.14898C6.00801 1.14898 1.14901 6.00798 1.14901 12C1.14901 17.993 6.00801 22.851 12 22.851C17.992 22.851 22.851 17.993 22.851 12C22.851 6.00798 17.992 1.14898 12 1.14898ZM12.671 17.488V18.761H15.355C15.728 18.761 16.026 19.037 16.026 19.381C16.026 19.725 15.728 20 15.355 20H8.68201C8.30901 20 8.01101 19.725 8.01101 19.381C8.01101 19.037 8.30901 18.761 8.68201 18.761H11.329V17.488C8.34601 17.179 5.99801 14.839 5.99801 11.983V10.744C5.99801 10.4 6.29601 10.125 6.66901 10.125C7.04201 10.125 7.34001 10.4 7.34001 10.744V11.983C7.34001 14.357 9.42801 16.284 12 16.284C14.572 16.284 16.66 14.357 16.66 11.983V10.744C16.66 10.4 16.958 10.125 17.331 10.125C17.704 10.125 18.002 10.4 18.002 10.744V11.983C18.002 14.839 15.654 17.179 12.671 17.488ZM12 15.045C10.173 15.045 8.93201 13.669 8.93201 11.983V7.06198C8.93201 5.37598 10.173 3.99998 12 3.99998C13.827 3.99998 15.068 5.37598 15.068 7.06198V11.983C15.068 13.669 13.827 15.045 12 15.045Z" fill="black"/>
</svg>
