<svg width="15" height="20" viewBox="0 0 15 20" fill="none" xmlns="http://www.w3.org/2000/svg">
<path d="M7.50001 10.2C10.1 10.2 12.1 8.19995 12.1 5.69995C12.1 3.19995 10 1.19995 7.50001 1.19995C4.90001 1.19995 2.90001 3.19995 2.90001 5.69995C2.90001 8.19995 4.90001 10.2 7.50001 10.2ZM7.50001 3.49995C8.80001 3.49995 9.80001 4.49995 9.80001 5.69995C9.80001 6.99995 8.80001 7.99995 7.50001 7.99995C6.20001 7.99995 5.20001 6.99995 5.20001 5.79995C5.20001 4.49995 6.20001 3.49995 7.50001 3.49995ZM12.8 10.8C12.5 10.3 11.8 9.89995 10.9 10.6C9.60001 11.6 7.50001 11.6 7.50001 11.6C7.50001 11.6 5.40001 11.6 4.10001 10.6C3.10001 9.89995 2.40001 10.3 2.20001 10.8C1.70001 11.7 2.30001 12.1 3.40001 12.8C4.40001 13.4 5.80001 13.6 6.60001 13.7L5.90001 14.4C4.90001 15.4 3.90001 16.4 3.20001 17C2.80001 17.4 2.80001 18.1 3.20001 18.5L3.30001 18.6C3.70001 19 4.40001 19 4.80001 18.6L7.50001 16C8.50001 17 9.50001 18 10.2 18.6C10.6 19 11.3 19 11.7 18.6L11.8 18.5C12.2 18.1 12.2 17.4 11.8 17L9.10001 14.4L8.40001 13.7C9.30001 13.6 10.6 13.4 11.6 12.8C12.8 12.1 13.3 11.7 12.8 10.8Z" fill="#0757A8"/>
</svg>
