<svg width="11" height="18" viewBox="0 0 11 18" fill="none" xmlns="http://www.w3.org/2000/svg">
<path d="M5.50001 9.20001C8.10001 9.20001 10.1 7.20001 10.1 4.70001C10.1 2.20001 8.00001 0.200012 5.50001 0.200012C2.90001 0.200012 0.900007 2.20001 0.900007 4.70001C0.900007 7.20001 2.90001 9.20001 5.50001 9.20001ZM5.50001 2.50001C6.80001 2.50001 7.80001 3.50001 7.80001 4.70001C7.80001 6.00001 6.80001 7.00001 5.50001 7.00001C4.20001 7.00001 3.20001 6.00001 3.20001 4.80001C3.20001 3.50001 4.20001 2.50001 5.50001 2.50001ZM10.8 9.80001C10.5 9.30001 9.80001 8.90001 8.90001 9.60001C7.60001 10.6 5.50001 10.6 5.50001 10.6C5.50001 10.6 3.40001 10.6 2.10001 9.60001C1.10001 8.90001 0.400007 9.30001 0.200007 9.80001C-0.299993 10.7 0.300007 11.1 1.40001 11.8C2.40001 12.4 3.80001 12.6 4.60001 12.7L3.90001 13.4C2.90001 14.4 1.90001 15.4 1.20001 16C0.800007 16.4 0.800007 17.1 1.20001 17.5L1.30001 17.6C1.70001 18 2.40001 18 2.80001 17.6L5.50001 15C6.50001 16 7.50001 17 8.20001 17.6C8.60001 18 9.30001 18 9.70001 17.6L9.80001 17.5C10.2 17.1 10.2 16.4 9.80001 16L7.10001 13.4L6.40001 12.7C7.30001 12.6 8.60001 12.4 9.60001 11.8C10.8 11.1 11.3 10.7 10.8 9.80001Z" fill="white"/>
</svg>
