<svg width="16" height="16" viewBox="0 0 16 16" fill="none" xmlns="http://www.w3.org/2000/svg">
<path fill-rule="evenodd" clip-rule="evenodd" d="M8 0C3.2 0 0 3.2 0 8C0 12.8 3.2 16 8 16C12.8 16 16 12.8 16 8C16 3.2 12.8 0 8 0ZM8 14.688C4.656 14.688 1.32 11.344 1.32 8.008C1.30601 7.12616 1.46911 6.25047 1.79965 5.43281C2.1302 4.61514 2.62146 3.87211 3.24435 3.24773C3.86724 2.62335 5.42596 1.79781 5.42596 1.79781C5.42596 1.79781 7.11813 1.30012 8 1.312C8.88119 1.30014 9.75581 1.46509 10.5721 1.7971C11.3885 2.1291 12.13 2.62142 12.7527 3.24495C13.3755 3.86847 13.867 4.61054 14.198 5.42727C14.529 6.24401 14.6929 7.11883 14.68 8C14.68 11.6 11.6 14.68 8 14.68V14.688ZM6.4 4.8V11.2H7.2L11.2 8.4V7.6L7.2 4.8H6.4Z" fill="white"/>
</svg>
