<svg width="20" height="20" viewBox="0 0 20 20" fill="none" xmlns="http://www.w3.org/2000/svg">
<path d="M15.8 12.3C16.4 11.1 16.8 9.8 16.8 8.4C16.7 3.8 13 0 8.4 0C3.7 0 0 3.8 0 8.4C0 13 3.8 16.7 8.4 16.7C9.8 16.7 11.1 16.4 12.3 15.7H13.1C13.1 15.7 15.9 18.5 17.1 19.6C17.6 20.1 18.4 20 18.8 19.6C19.4 19 19.2 19.2 19.8 18.6C20.2 18.2 20.2 17.4 19.7 17C18.6 15.9 15.7 13.1 15.7 13.1L15.8 12.3ZM8.4 13.3C5.7 13.3 3.5 11.1 3.5 8.4C3.5 5.7 5.7 3.5 8.4 3.5C11.1 3.5 13.3 5.7 13.3 8.4C13.3 11.1 11.1 13.3 8.4 13.3Z" fill="#1B354A"/>
</svg>
