<svg width="20" height="17" viewBox="0 0 20 17" fill="none" xmlns="http://www.w3.org/2000/svg">
<path d="M20 2C19.3 2.3 18.5 2.6 17.6 2.7C18.4 2.2 19.1 1.3 19.4 0.3C18.6 0.8 17.7 1.2 16.8 1.3C16.1 0.5 15 0 13.8 0C11.5 0 9.69999 1.9 9.69999 4.3C9.69999 4.6 9.69999 5 9.79999 5.3C6.39999 5.1 3.39999 3.4 1.39999 0.8C0.999994 1.4 0.799994 2.2 0.799994 2.9C0.799994 4.4 1.49999 5.7 2.59999 6.5C1.99999 6.5 1.39999 6.3 0.799994 6C0.799994 6 0.799994 6 0.799994 6.1C0.799994 8.2 2.19999 9.9 4.09999 10.3C3.79999 10.4 3.39999 10.5 2.99999 10.5C2.69999 10.5 2.49999 10.5 2.19999 10.4C2.69999 12.1 4.19999 13.3 5.99999 13.4C4.59999 14.6 2.79999 15.2 0.899994 15.2C0.599994 15.2 0.199994 15.2 -0.100006 15.1C1.79999 16.3 3.99999 17 6.29999 17C13.8 17 18 10.5 18 4.8C18 4.6 18 4.4 18 4.2C18.8 3.6 19.4 2.9 20 2Z" fill="#0757A8"/>
</svg>
