<svg width="26" height="16" viewBox="0 0 26 16" fill="none" xmlns="http://www.w3.org/2000/svg">
<path fill-rule="evenodd" clip-rule="evenodd" d="M25.4 1.1C25.6 0.5 25.4 0 24.5 0H21.7C21 0 20.6 0.4 20.5 0.8C20.5 0.8 19.1 4.5 17 6.8C16.3 7.5 16 7.7 15.7 7.7C15.5 7.8 15 7.6 15 7V1C15 0.3 14.6 0 14 0H9.9C9.5 0 9.2 0.3 9.2 0.7C9.2 1.4 10.2 1.6 10.3 3.6V7.9C10.3 8.9 10.1 9 9.8 9C8.8 9 6.5 5.3 5.1 1.1C4.8 0.3 4.5 0 3.8 0H1C0.2 0 0 0.4 0 0.8C0 1.6 1 5.5 4.5 10.6C6.9 14.1 10.2 16 13.2 16C14 16 15 15.7 15 15V12C15 11.2 15.4 11.2 15.9 11.2C16.3 11.2 17 11.4 18.7 13.1C20.6 15.1 20.9 16 22 16H24.8C25.6 16 26 15.6 25.8 14.7C25.5 13.9 24.6 12.7 23.4 11.2C22.7 10.4 21.7 9.5 21.4 9.1C21 8.5 21.1 8.3 21.4 7.8C21.6 7.9 25 2.8 25.4 1.1Z" fill="#0757A8"/>
</svg>
