<svg width="40" height="40" viewBox="0 0 40 40" fill="none" xmlns="http://www.w3.org/2000/svg">
<path fill-rule="evenodd" clip-rule="evenodd" d="M20 0C8.93333 0 0 8.93333 0 20C0 31.0667 8.93333 40 20 40C31.0667 40 40 31.0667 40 20C40 8.93333 31.0667 0 20 0ZM27.3333 21.3333L17.3333 32.6667C17.3333 32.6667 16.2 33.5333 15.3333 32.6667C14.4 31.7333 15.3333 30.6667 15.3333 30.6667L24.6667 20L15.3333 9.33333C15.3333 9.33333 14.4 8.26667 15.3333 7.33333C16.2 6.46667 17.3333 7.33333 17.3333 7.33333L27.3333 18.6667C27.3333 18.6667 28 19.3333 28 20C28 20.6667 27.3333 21.3333 27.3333 21.3333Z" fill="#0757A8"/>
</svg>
