<svg width="40" height="40" viewBox="0 0 40 40" fill="none" xmlns="http://www.w3.org/2000/svg">
<path fill-rule="evenodd" clip-rule="evenodd" d="M0 20C0 31.0667 8.93333 40 20 40C31.0667 40 40 31.0667 40 20C40 8.93333 31.0667 0 20 0C8.93333 0 0 8.93333 0 20ZM12 20C12 19.3333 12.6667 18.6667 12.6667 18.6667L22.6667 7.33333C22.6667 7.33333 23.8 6.46667 24.6667 7.33333C25.6 8.26667 24.6667 9.33333 24.6667 9.33333L15.3333 20L24.6667 30.6667C24.6667 30.6667 25.6 31.7333 24.6667 32.6667C23.8 33.5333 22.6667 32.6667 22.6667 32.6667L12.6667 21.3333C12.6667 21.3333 12 20.6667 12 20Z" fill="#0757A8"/>
</svg>
