<svg width="26" height="20" viewBox="0 0 26 20" fill="none" xmlns="http://www.w3.org/2000/svg">
<path fill-rule="evenodd" clip-rule="evenodd" d="M12.5 18C14.5 18 14.5 16 14.5 16H10.5C10.5 16 10.5 18 12.5 18ZM3.5 9L2.5 8C2.5 8 0 10.7 0 14C0 17.3 2.5 20 2.5 20L3.5 19C3.5 19 1.5 17 1.5 14C1.5 11 3.5 9 3.5 9ZM4.5 10C4.5 10 3 12 3 14C3 16 4.5 18 4.5 18L5.5 17C5.5 17 4.5 16 4.5 14C4.5 12 5.5 11 5.5 11L4.5 10ZM18 11V7C18 5.4 17.4 3 16 3C15.5 3 15 3 15 3V2C15 2 15 0 13 0C11 0 11 2 11 2V3C11 3 10.6 3 10 3C8.5 3 8 5.5 8 7V11C8 12 8 13 7 13C6.5 13 6 13 6 13V15H20V13C20 13 19.4 13 19 13C18.2 13 18 12 18 11ZM13.9 3H11.9C11.9 3 11.7 1.3 12.9 1.3C14.3 1.3 13.9 3 13.9 3ZM21.5 10L20.5 11C20.5 11 21.5 12 21.5 14C21.5 16 20.5 17 20.5 17L21.5 18C21.5 18 23 16 23 14C23 12 21.5 10 21.5 10ZM23.5 8L22.5 9C22.5 9 24.5 11 24.5 14C24.5 17 22.5 19 22.5 19L23.5 20C23.5 20 26 17.3 26 14C26 10.7 23.5 8 23.5 8Z" fill="white"/>
</svg>
