<svg width="20" height="20" viewBox="0 0 20 20" fill="none" xmlns="http://www.w3.org/2000/svg">
<path d="M10 2.6C12.4 2.6 12.7 2.6 13.6 2.7C14.5 2.7 15 2.9 15.3 3C15.7 3.2 16 3.4 16.3 3.7C16.6 4 16.8 4.3 17 4.7C17.1 5 17.3 5.5 17.3 6.4C17.3 7.3 17.4 7.6 17.4 10C17.4 12.4 17.4 12.7 17.3 13.6C17.3 14.5 17.1 15 17 15.3C16.8 15.7 16.6 16 16.3 16.3C16 16.6 15.7 16.8 15.3 17C15 17.1 14.5 17.3 13.6 17.3C12.7 17.3 12.4 17.4 10 17.4C7.6 17.4 7.3 17.4 6.4 17.3C5.5 17.3 5 17.1 4.7 17C4.3 16.8 4 16.6 3.7 16.3C3.4 16 3.2 15.7 3 15.3C2.9 15 2.7 14.5 2.7 13.6C2.7 12.7 2.6 12.4 2.6 10C2.6 7.6 2.6 7.3 2.7 6.4C2.7 5.5 2.9 5 3 4.7C3.2 4.3 3.4 4 3.7 3.7C4 3.3 4.3 3.1 4.7 3C5 2.9 5.5 2.7 6.4 2.7C7.3 2.6 7.6 2.6 10 2.6ZM10 1C7.6 1 7.2 1 6.3 1.1C5.3 1.1 4.7 1.3 4.1 1.5C3.5 1.7 3 2 2.5 2.5C2 3 1.7 3.5 1.5 4.1C1.3 4.7 1.1 5.3 1.1 6.3C1 7.2 1 7.6 1 10C1 12.4 1 12.8 1.1 13.7C1.1 14.7 1.3 15.3 1.5 15.9C1.7 16.5 2 17 2.5 17.5C3 18 3.5 18.3 4.1 18.5C4.7 18.7 5.3 18.9 6.3 18.9C7.3 18.9 7.6 19 10 19C12.4 19 12.8 19 13.7 18.9C14.7 18.9 15.3 18.7 15.9 18.5C16.5 18.3 17 18 17.5 17.5C18 17 18.3 16.5 18.5 15.9C18.7 15.3 18.9 14.7 18.9 13.7C18.9 12.7 19 12.4 19 10C19 7.6 19 7.2 18.9 6.3C18.9 5.3 18.7 4.7 18.5 4.1C18.3 3.5 18 3 17.5 2.5C17 2 16.5 1.7 15.9 1.5C15.3 1.3 14.7 1.1 13.7 1.1C12.8 1 12.4 1 10 1Z" fill="#0757A8"/>
<path d="M9.99999 5.3999C7.39999 5.3999 5.39999 7.4999 5.39999 9.9999C5.39999 12.4999 7.49999 14.5999 9.99999 14.5999C12.5 14.5999 14.6 12.4999 14.6 9.9999C14.6 7.4999 12.6 5.3999 9.99999 5.3999ZM9.99999 12.9999C8.29999 12.9999 6.99999 11.6999 6.99999 9.9999C6.99999 8.2999 8.29999 6.9999 9.99999 6.9999C11.7 6.9999 13 8.2999 13 9.9999C13 11.6999 11.7 12.9999 9.99999 12.9999Z" fill="#0757A8"/>
<path d="M14.8 6.3001C15.4075 6.3001 15.9 5.80761 15.9 5.2001C15.9 4.59258 15.4075 4.1001 14.8 4.1001C14.1925 4.1001 13.7 4.59258 13.7 5.2001C13.7 5.80761 14.1925 6.3001 14.8 6.3001Z" fill="#0757A8"/>
</svg>
