<svg width="14" height="15" viewBox="0 0 14 15" fill="none" xmlns="http://www.w3.org/2000/svg">
<g clip-path="url(#clip0)">
<path fill-rule="evenodd" clip-rule="evenodd" d="M7 0.225098C3.15 0.225098 0 3.45385 0 7.4001C0 11.3464 3.15 14.5751 7 14.5751C10.85 14.5751 14 11.3464 14 7.4001C14 3.45385 10.85 0.225098 7 0.225098ZM7 13.3554C3.78 13.3554 1.19 10.7006 1.19 7.4001C1.19 4.0996 3.78 1.44485 7 1.44485C10.22 1.44485 12.81 4.0996 12.81 7.4001C12.81 10.7006 10.22 13.3554 7 13.3554ZM5.95 4.88885L7.7 6.6826H3.5V8.1176H7.7L5.95 9.91135L7 10.9876L10.5 7.4001L7 3.8126L5.95 4.88885Z" fill="white"/>
</g>
<defs>
<clipPath id="clip0">
<rect y="0.225098" width="14" height="14.35" fill="white"/>
</clipPath>
</defs>
</svg>
