<svg width="66" height="76" viewBox="0 0 66 76" fill="none" xmlns="http://www.w3.org/2000/svg">
<path d="M1.51039 1H4.63089C4.70599 1.32035 4.82628 1.69721 5.02043 2.08047C5.28729 2.60726 5.70261 3.16253 6.3425 3.58359C6.98802 4.00834 7.80267 4.25714 8.8 4.25714C9.79733 4.25714 10.612 4.00834 11.2575 3.58359C11.8974 3.16253 12.3127 2.60726 12.5796 2.08047C12.7737 1.69721 12.894 1.32035 12.9691 1H16.7309C16.806 1.32035 16.9263 1.69721 17.1204 2.08047C17.3873 2.60726 17.8026 3.16253 18.4425 3.58359C19.088 4.00834 19.9027 4.25714 20.9 4.25714C21.8973 4.25714 22.712 4.00834 23.3575 3.58359C23.9974 3.16253 24.4127 2.60726 24.6796 2.08047C24.8737 1.69721 24.994 1.32035 25.0691 1H28.8309C28.906 1.32035 29.0263 1.69721 29.2204 2.08047C29.4873 2.60726 29.9026 3.16253 30.5425 3.58359C31.188 4.00834 32.0027 4.25714 33 4.25714C33.9973 4.25714 34.812 4.00834 35.4575 3.58359C36.0974 3.16253 36.5127 2.60726 36.7796 2.08047C36.9737 1.69721 37.094 1.32035 37.1691 1H40.9309C41.006 1.32035 41.1263 1.69721 41.3204 2.08047C41.5873 2.60726 42.0026 3.16253 42.6425 3.58359C43.288 4.00835 44.1027 4.25714 45.1 4.25714C46.0973 4.25714 46.912 4.00834 47.5575 3.58359C48.1974 3.16253 48.6127 2.60726 48.8796 2.08047C49.0737 1.69721 49.194 1.32035 49.2691 1H53.0309C53.106 1.32035 53.2263 1.69721 53.4204 2.08047C53.6873 2.60726 54.1026 3.16253 54.7425 3.58359C55.388 4.00834 56.2027 4.25714 57.2 4.25714C58.1973 4.25714 59.012 4.00834 59.6575 3.58359C60.2974 3.16253 60.7127 2.60726 60.9796 2.08047C61.1737 1.69721 61.294 1.32035 61.3691 1H64.4896L65 1.50376V74.4962L64.4896 75H1.51039L1 74.4962V1.50376L1.51039 1Z" fill="white" stroke="#0757A8" stroke-width="2" stroke-linecap="round" stroke-linejoin="bevel"/>
</svg>
