<svg width="22" height="22" viewBox="0 0 22 22" fill="none" xmlns="http://www.w3.org/2000/svg">
<g clip-path="url(#clip0)">
<path fill-rule="evenodd" clip-rule="evenodd" d="M20 6.0001C19.4 6.0001 13.6 6.0001 13.6 6.0001L16 2.0001C16 2.0001 16.9 0.500105 16 0.000104561C15.2 -0.399895 14 1.0001 14 1.0001L11 6.0001L8 1.0001C8 1.0001 6.8 -0.599895 6 0.000104561C5.2 0.600105 6 2.0001 6 2.0001L8.5 6.0001C8.5 6.0001 2.6 6.0001 2 6.0001C1 6.0001 0 7.0001 0 8.0001C0 8.60011 0 19.4001 0 20.0001C0 20.9001 1.1 22.0001 2 22.0001C2.6 22.0001 19.4 22.0001 20 22.0001C20.9 22.0001 22 20.9001 22 20.0001C22 19.4001 22 8.60011 22 8.0001C22 7.1001 20.9 6.0001 20 6.0001ZM20 19.0001L19 20.0001H3L2 19.0001V9.0001L3 8.0001H19L20 9.0001V19.0001ZM9 10.0001V18.0001H10L14 14.0001L10 10.0001H9Z" fill="black"/>
</g>
<defs>
<clipPath id="clip0">
<path d="M0 0H22V22H0V0Z" fill="white"/>
</clipPath>
</defs>
</svg>
